USFL
nRows=235
nColumns=2
inDegrees=yes
endheader
time	tib_ant_r	
4.09173	 64.414311	
4.125	 64.412853	
4.15827	 64.411047	
4.19153	 64.405052	
4.2248	 64.423609	
4.25806	 64.422913	
4.29133	 64.429856	
4.3246	 64.469073	
4.35786	 64.423845	
4.39113	 64.391303	
4.4244	 64.384400	
4.45766	 64.367147	
4.49093	 64.380257	
4.52419	 64.381094	
4.55746	 64.366679	
4.59073	 64.362309	
4.62399	 64.373414	
4.65726	 64.355203	
4.69052	 64.326430	
4.72379	 64.372912	
4.75706	 64.352387	
4.79032	 64.326551	
4.82359	 64.347982	
4.85685	 64.303322	
4.89012	 64.288067	
4.92339	 64.291203	
4.95665	 64.268615	
4.98992	 64.273529	
5.02319	 64.273611	
5.05645	 64.256597	
5.08972	 64.256840	
5.12298	 64.265935	
5.15625	 64.263185	
5.18952	 64.270037	
5.22278	 64.276187	
5.25605	 64.273625	
5.28931	 64.254564	
5.32258	 64.220852	
5.35585	 64.245297	
5.38911	 64.258632	
5.42238	 64.261367	
5.45565	 64.242985	
5.48891	 64.323485	
5.52218	 64.391855	
5.55544	 64.383885	
5.58871	 64.950201	
5.62198	 64.363260	
5.65524	 63.687723	
5.68851	 63.710753	
5.72177	 63.128671	
5.75504	 63.154207	
5.78831	 63.412580	
5.82157	 63.305197	
5.85484	 62.934098	
5.8881	 62.847490	
5.92137	 62.676511	
5.95464	 62.768657	
5.9879	 62.172686	
6.02117	 61.451328	
6.05444	 61.104461	
6.0877	 60.962372	
6.12097	 60.924155	
6.15423	 60.711974	
6.1875	 60.732900	
6.22077	 61.036106	
6.25403	 60.988257	
6.2873	 60.683516	
6.32056	 60.607986	
6.35383	 60.286708	
6.3871	 60.003223	
6.42036	 59.981436	
6.45363	 59.690356	
6.4869	 59.493613	
6.52016	 59.347367	
6.55343	 59.271064	
6.58669	 59.057496	
6.61996	 59.012594	
6.65323	 58.889886	
6.68649	 58.854885	
6.71976	 58.826335	
6.75302	 58.804566	
6.78629	 58.791767	
6.81956	 58.861826	
6.85282	 58.867325	
6.88609	 58.837392	
6.91935	 58.830733	
6.95262	 58.820491	
6.98589	 58.782952	
7.01915	 58.789431	
7.05242	 58.781325	
7.08569	 58.712878	
7.11895	 58.603413	
7.15222	 58.599365	
7.18548	 58.541636	
7.21875	 58.481916	
7.25202	 58.494140	
7.28528	 58.536136	
7.31855	 58.540197	
7.35181	 58.533622	
7.38508	 58.479206	
7.41835	 58.500611	
7.45161	 58.384232	
7.48488	 58.312425	
7.51815	 58.301111	
7.55141	 58.206497	
7.58468	 58.149155	
7.61794	 58.085073	
7.65121	 58.103288	
7.68448	 58.107449	
7.71774	 58.078966	
7.75101	 58.119378	
7.78427	 58.130200	
7.81754	 58.126013	
7.85081	 58.066881	
7.88407	 58.064088	
7.91734	 58.023991	
7.9506	 57.970927	
7.98387	 57.961076	
8.01714	 57.930175	
8.0504	 57.947177	
8.08367	 57.916068	
8.11694	 57.925485	
8.1502	 57.893898	
8.18347	 57.894239	
8.21673	 57.902576	
8.25	 57.914435	
8.28327	 57.834462	
8.31653	 57.814369	
8.3498	 57.759773	
8.38306	 57.844446	
8.41633	 57.982668	
8.4496	 57.958079	
8.48286	 58.013638	
8.51613	 58.018772	
8.5494	 58.020478	
8.58266	 57.930694	
8.61593	 57.871691	
8.64919	 57.817520	
8.68246	 57.744801	
8.71573	 57.696414	
8.74899	 57.720033	
8.78226	 57.810680	
8.81552	 57.817006	
8.84879	 57.811247	
8.88206	 57.839743	
8.91532	 57.808468	
8.94859	 57.790211	
8.98185	 57.804631	
9.01512	 57.786148	
9.04839	 57.802435	
9.08165	 57.766369	
9.11492	 57.788192	
9.14819	 57.849859	
9.18145	 57.869964	
9.21472	 57.810242	
9.24798	 57.804818	
9.28125	 57.726853	
9.31452	 57.747845	
9.34778	 57.717394	
9.38105	 57.764156	
9.41431	 57.780167	
9.44758	 57.793037	
9.48085	 57.919916	
9.51411	 57.989593	
9.54738	 57.980797	
9.58065	 58.087633	
9.61391	 58.125833	
9.64718	 58.068470	
9.68044	 58.110530	
9.71371	 58.104521	
9.74698	 58.109666	
9.78024	 58.151745	
9.81351	 58.140453	
9.84677	 58.155187	
9.88004	 58.188397	
9.91331	 58.159332	
9.94657	 58.129414	
9.97984	 58.057846	
10.0131	 58.048992	
10.0464	 58.022440	
10.0796	 57.968553	
10.1129	 58.117882	
10.1462	 58.171919	
10.1794	 58.252829	
10.2127	 58.347942	
10.246	 58.444846	
10.2792	 58.462264	
10.3125	 58.491074	
10.3458	 58.570872	
10.379	 58.561260	
10.4123	 58.583609	
10.4456	 58.571026	
10.4788	 58.585717	
10.5121	 58.499650	
10.5454	 58.430752	
10.5786	 58.346749	
10.6119	 58.329805	
10.6452	 58.312534	
10.6784	 58.417525	
10.7117	 58.489767	
10.745	 58.587600	
10.7782	 58.703061	
10.8115	 58.841762	
10.8448	 59.238125	
10.878	 59.351276	
10.9113	 59.596706	
10.9446	 59.413871	
10.9778	 60.045078	
11.0111	 60.336786	
11.0444	 60.913545	
11.0776	 61.163100	
11.1109	 61.284334	
11.1442	 61.546096	
11.1774	 61.324244	
11.2107	 61.645551	
11.244	 61.825736	
11.2772	 61.627948	
11.3105	 61.824324	
11.3437	 62.134214	
11.377	 62.108621	
11.4103	 62.122010	
11.4435	 62.051767	
11.4768	 61.948071	
11.5101	 62.015271	
11.5433	 61.939939	
11.5766	 62.145549	
11.6099	 62.197615	
11.6431	 62.281933	
11.6764	 62.278819	
11.7097	 62.076078	
11.7429	 62.205148	
11.7762	 62.300163	
11.8095	 62.310146	
11.8427	 62.269683	
11.876	 62.314339	
